<mxfile host="Electron" modified="2023-12-20T17:23:56.072Z" agent="Mozilla/5.0 (X11; Linux x86_64) AppleWebKit/537.36 (KHTML, like Gecko) draw.io/22.1.2 Chrome/114.0.5735.289 Electron/25.9.4 Safari/537.36" etag="gsAU4B7rQWvOKcpHBMJY" version="22.1.2" type="device">
  <diagram name="Configuration Update Flow Chart" id="fo18u6Ch1KVScq3Fo-Wy">
    <mxGraphModel dx="1103" dy="1547" grid="1" gridSize="10" guides="1" tooltips="1" connect="1" arrows="1" fold="1" page="1" pageScale="1" pageWidth="800" pageHeight="350" background="#999999" math="0" shadow="0">
      <root>
        <object label="" description="Flow chart of configuration file download and filesystem storage." rev="1.1" id="0">
          <mxCell />
        </object>
        <object label="Title Block" id="1">
          <mxCell style="locked=1;" parent="0" />
        </object>
        <mxCell id="h7L3MlKvrl_dhOmhB3lf-10" value="Prepared with: draw.io v22.1.2" style="strokeWidth=1;shadow=0;dashed=0;align=center;html=1;shape=mxgraph.mockup.text.textBox;fontColor=#666666;align=left;fontSize=17;spacingLeft=4;spacingTop=-3;whiteSpace=wrap;strokeColor=#333333;mainText=;fillColor=none;fontFamily=Open Sans;movable=1;resizable=1;rotatable=1;deletable=1;editable=1;locked=0;connectable=1;" parent="1" vertex="1">
          <mxGeometry x="220" y="300" width="280" height="30" as="geometry" />
        </mxCell>
        <object label="&lt;div align=&quot;left&quot;&gt;Sheet %pagenumber%/%pagecount%&lt;/div&gt;" placeholders="1" id="h7L3MlKvrl_dhOmhB3lf-12">
          <mxCell style="strokeWidth=1;shadow=0;dashed=0;align=left;html=1;shape=mxgraph.mockup.text.textBox;fontColor=#666666;align=left;fontSize=17;spacingLeft=4;spacingTop=-3;whiteSpace=wrap;strokeColor=#333333;mainText=;fillColor=none;fontFamily=Open Sans;movable=1;resizable=1;rotatable=1;deletable=1;editable=1;locked=0;connectable=1;" parent="1" vertex="1">
            <mxGeometry x="60" y="300" width="160" height="30" as="geometry" />
          </mxCell>
        </object>
        <object label="Date: &lt;font style=&quot;font-size: 17px;&quot;&gt;%date{ddd mmm dd yyyy HH:MM:ss}%&lt;/font&gt;" placeholders="1" id="h7L3MlKvrl_dhOmhB3lf-13">
          <mxCell style="strokeWidth=1;shadow=0;dashed=0;align=center;html=1;shape=mxgraph.mockup.text.textBox;fontColor=#666666;align=left;fontSize=17;spacingLeft=4;spacingTop=-3;whiteSpace=wrap;strokeColor=#333333;mainText=;fillColor=none;fontFamily=Open Sans;movable=1;resizable=1;rotatable=1;deletable=1;editable=1;locked=0;connectable=1;" parent="1" vertex="1">
            <mxGeometry x="500" y="300" width="280" height="30" as="geometry" />
          </mxCell>
        </object>
        <object label="&lt;b&gt;Title: %page%&lt;/b&gt;" placeholders="1" id="h7L3MlKvrl_dhOmhB3lf-14">
          <mxCell style="strokeWidth=1;shadow=0;dashed=0;align=center;html=1;shape=mxgraph.mockup.text.textBox;fontColor=#666666;align=left;fontSize=17;spacingLeft=4;spacingTop=-3;whiteSpace=wrap;strokeColor=#333333;mainText=;fillColor=none;fontFamily=Open Sans;movable=1;resizable=1;rotatable=1;deletable=1;editable=1;locked=0;connectable=1;" parent="1" vertex="1">
            <mxGeometry x="60" y="240" width="720" height="30" as="geometry" />
          </mxCell>
        </object>
        <object label="Filename: %filename%" placeholders="1" id="h7L3MlKvrl_dhOmhB3lf-15">
          <mxCell style="strokeWidth=1;shadow=0;dashed=0;align=center;html=1;shape=mxgraph.mockup.text.textBox;fontColor=#666666;align=left;fontSize=17;spacingLeft=4;spacingTop=-3;whiteSpace=wrap;strokeColor=#333333;mainText=;fillColor=none;fontFamily=Open Sans;movable=1;resizable=1;rotatable=1;deletable=1;editable=1;locked=0;connectable=1;" parent="1" vertex="1">
            <mxGeometry x="60" y="270" width="500" height="30" as="geometry" />
          </mxCell>
        </object>
        <object label="&lt;div align=&quot;left&quot;&gt;%description%&lt;/div&gt;" placeholders="1" id="h7L3MlKvrl_dhOmhB3lf-16">
          <mxCell style="strokeWidth=1;shadow=0;dashed=0;html=1;shape=mxgraph.mockup.text.textBox;fontColor=#666666;align=left;verticalAlign=top;fontSize=12;spacingLeft=4;spacingTop=-3;whiteSpace=wrap;strokeColor=#333333;mainText=;fillColor=none;fontFamily=Open Sans;movable=1;resizable=1;rotatable=1;deletable=1;editable=1;locked=0;connectable=1;" parent="1" vertex="1">
            <mxGeometry x="60" y="200" width="720" height="40" as="geometry" />
          </mxCell>
        </object>
        <object label="&lt;b&gt;Rev: %rev%&lt;br&gt;&lt;/b&gt;" placeholders="1" id="EyKvBmyPNv_MzgSUc5b6-1">
          <mxCell style="strokeWidth=1;shadow=0;dashed=0;align=center;html=1;shape=mxgraph.mockup.text.textBox;fontColor=#666666;align=left;fontSize=17;spacingLeft=4;spacingTop=-3;whiteSpace=wrap;strokeColor=#333333;mainText=;fillColor=none;fontFamily=Open Sans;movable=1;resizable=1;rotatable=1;deletable=1;editable=1;locked=0;connectable=1;" parent="1" vertex="1">
            <mxGeometry x="560" y="270" width="220" height="30" as="geometry" />
          </mxCell>
        </object>
        <object label="Drawing Frame" id="2jkEU8j2_UPUL1MGRyPS-1">
          <mxCell style="locked=1;" parent="0" />
        </object>
        <mxCell id="2jkEU8j2_UPUL1MGRyPS-2" value="" style="rounded=0;whiteSpace=wrap;html=1;fillColor=none;strokeWidth=3;movable=1;resizable=1;rotatable=1;deletable=1;editable=1;locked=0;connectable=1;" parent="2jkEU8j2_UPUL1MGRyPS-1" vertex="1">
          <mxGeometry x="40" y="-600" width="740" height="930" as="geometry" />
        </mxCell>
        <object label="Document" id="NbdiYjX3MhI7OpqD2NvG-1">
          <mxCell parent="0" />
        </object>
        <mxCell id="PINzFg8CK9Q2xGxRfYvV-2" value="S" style="strokeWidth=2;html=1;shape=mxgraph.flowchart.start_2;whiteSpace=wrap;fontFamily=Open Sans;fillColor=#E6E6E6;" parent="NbdiYjX3MhI7OpqD2NvG-1" vertex="1">
          <mxGeometry x="70" y="-540" width="40" height="40" as="geometry" />
        </mxCell>
        <mxCell id="PINzFg8CK9Q2xGxRfYvV-6" style="edgeStyle=orthogonalEdgeStyle;rounded=0;orthogonalLoop=1;jettySize=auto;html=1;fontFamily=Open Sans;" parent="NbdiYjX3MhI7OpqD2NvG-1" source="PINzFg8CK9Q2xGxRfYvV-2" target="PINzFg8CK9Q2xGxRfYvV-18" edge="1">
          <mxGeometry relative="1" as="geometry">
            <mxPoint x="130" y="-470" as="targetPoint" />
          </mxGeometry>
        </mxCell>
        <mxCell id="PINzFg8CK9Q2xGxRfYvV-7" value="End" style="strokeWidth=2;html=1;shape=mxgraph.flowchart.terminator;whiteSpace=wrap;fontFamily=Open Sans;fillColor=#E6E6E6;" parent="NbdiYjX3MhI7OpqD2NvG-1" vertex="1">
          <mxGeometry x="90" y="130" width="80" height="40" as="geometry" />
        </mxCell>
        <mxCell id="OvfQxydnYUlert43v9c2-1" style="edgeStyle=orthogonalEdgeStyle;rounded=0;orthogonalLoop=1;jettySize=auto;html=1;fontFamily=Open Sans;" parent="NbdiYjX3MhI7OpqD2NvG-1" source="PINzFg8CK9Q2xGxRfYvV-18" target="PINzFg8CK9Q2xGxRfYvV-23" edge="1">
          <mxGeometry relative="1" as="geometry" />
        </mxCell>
        <mxCell id="OvfQxydnYUlert43v9c2-2" value="json(get_config, filename)" style="edgeLabel;html=1;align=center;verticalAlign=middle;resizable=0;points=[];fontFamily=Open Sans;" parent="OvfQxydnYUlert43v9c2-1" vertex="1" connectable="0">
          <mxGeometry x="0.1093" relative="1" as="geometry">
            <mxPoint x="-22" as="offset" />
          </mxGeometry>
        </mxCell>
        <mxCell id="PINzFg8CK9Q2xGxRfYvV-18" value="Transmit update request to Node-RED" style="rounded=1;whiteSpace=wrap;html=1;absoluteArcSize=1;arcSize=14;strokeWidth=2;fontFamily=Open Sans;fillColor=#E6E6E6;" parent="NbdiYjX3MhI7OpqD2NvG-1" vertex="1">
          <mxGeometry x="180" y="-550" width="100" height="60" as="geometry" />
        </mxCell>
        <mxCell id="OvfQxydnYUlert43v9c2-5" value="Yes" style="edgeStyle=orthogonalEdgeStyle;rounded=0;orthogonalLoop=1;jettySize=auto;html=1;entryX=1;entryY=0.5;entryDx=0;entryDy=0;exitX=0.5;exitY=1;exitDx=0;exitDy=0;exitPerimeter=0;fontFamily=Open Sans;" parent="NbdiYjX3MhI7OpqD2NvG-1" source="OvfQxydnYUlert43v9c2-7" target="OvfQxydnYUlert43v9c2-4" edge="1">
          <mxGeometry x="0.1667" relative="1" as="geometry">
            <mxPoint as="offset" />
          </mxGeometry>
        </mxCell>
        <mxCell id="OvfQxydnYUlert43v9c2-8" style="edgeStyle=orthogonalEdgeStyle;rounded=0;orthogonalLoop=1;jettySize=auto;html=1;fontFamily=Open Sans;" parent="NbdiYjX3MhI7OpqD2NvG-1" source="PINzFg8CK9Q2xGxRfYvV-23" target="OvfQxydnYUlert43v9c2-7" edge="1">
          <mxGeometry relative="1" as="geometry" />
        </mxCell>
        <mxCell id="PINzFg8CK9Q2xGxRfYvV-23" value="Find matching configuration file" style="rounded=1;whiteSpace=wrap;html=1;absoluteArcSize=1;arcSize=14;strokeWidth=2;fontFamily=Open Sans;fillColor=#E6E6E6;" parent="NbdiYjX3MhI7OpqD2NvG-1" vertex="1">
          <mxGeometry x="520" y="-550" width="100" height="60" as="geometry" />
        </mxCell>
        <mxCell id="OvfQxydnYUlert43v9c2-3" value="" style="endArrow=none;dashed=1;html=1;rounded=0;fontFamily=Open Sans;" parent="NbdiYjX3MhI7OpqD2NvG-1" edge="1">
          <mxGeometry width="50" height="50" relative="1" as="geometry">
            <mxPoint x="390" y="190" as="sourcePoint" />
            <mxPoint x="390" y="-590" as="targetPoint" />
          </mxGeometry>
        </mxCell>
        <mxCell id="OvfQxydnYUlert43v9c2-11" style="edgeStyle=orthogonalEdgeStyle;rounded=0;orthogonalLoop=1;jettySize=auto;html=1;fontFamily=Open Sans;" parent="NbdiYjX3MhI7OpqD2NvG-1" source="OvfQxydnYUlert43v9c2-4" target="OvfQxydnYUlert43v9c2-10" edge="1">
          <mxGeometry relative="1" as="geometry" />
        </mxCell>
        <mxCell id="OvfQxydnYUlert43v9c2-4" value="Calculate MD5" style="rounded=1;whiteSpace=wrap;html=1;absoluteArcSize=1;arcSize=14;strokeWidth=2;fontFamily=Open Sans;fillColor=#E6E6E6;" parent="NbdiYjX3MhI7OpqD2NvG-1" vertex="1">
          <mxGeometry x="520" y="-460" width="100" height="60" as="geometry" />
        </mxCell>
        <mxCell id="OvfQxydnYUlert43v9c2-6" value="Transmit Empty Response" style="rounded=1;whiteSpace=wrap;html=1;absoluteArcSize=1;arcSize=14;strokeWidth=2;fontFamily=Open Sans;fillColor=#E6E6E6;" parent="NbdiYjX3MhI7OpqD2NvG-1" vertex="1">
          <mxGeometry x="520" y="-290" width="100" height="60" as="geometry" />
        </mxCell>
        <mxCell id="OvfQxydnYUlert43v9c2-9" value="No" style="edgeStyle=orthogonalEdgeStyle;rounded=0;orthogonalLoop=1;jettySize=auto;html=1;entryX=1;entryY=0.5;entryDx=0;entryDy=0;exitX=0.5;exitY=1;exitDx=0;exitDy=0;exitPerimeter=0;fontFamily=Open Sans;" parent="NbdiYjX3MhI7OpqD2NvG-1" source="OvfQxydnYUlert43v9c2-7" target="OvfQxydnYUlert43v9c2-6" edge="1">
          <mxGeometry x="-0.5172" relative="1" as="geometry">
            <mxPoint as="offset" />
          </mxGeometry>
        </mxCell>
        <mxCell id="OvfQxydnYUlert43v9c2-7" value="Match?" style="strokeWidth=2;html=1;shape=mxgraph.flowchart.decision;whiteSpace=wrap;fontFamily=Open Sans;fillColor=#E6E6E6;" parent="NbdiYjX3MhI7OpqD2NvG-1" vertex="1">
          <mxGeometry x="650" y="-570" width="100" height="100" as="geometry" />
        </mxCell>
        <mxCell id="OvfQxydnYUlert43v9c2-13" value="byte[] {filename, length, md5, content}" style="edgeStyle=orthogonalEdgeStyle;rounded=0;orthogonalLoop=1;jettySize=auto;html=1;fontFamily=Open Sans;" parent="NbdiYjX3MhI7OpqD2NvG-1" source="OvfQxydnYUlert43v9c2-10" target="OvfQxydnYUlert43v9c2-14" edge="1">
          <mxGeometry relative="1" as="geometry">
            <mxPoint x="220" y="-320" as="targetPoint" />
            <mxPoint as="offset" />
          </mxGeometry>
        </mxCell>
        <mxCell id="OvfQxydnYUlert43v9c2-10" value="Transmit Config" style="rounded=1;whiteSpace=wrap;html=1;absoluteArcSize=1;arcSize=14;strokeWidth=2;fontFamily=Open Sans;fillColor=#E6E6E6;" parent="NbdiYjX3MhI7OpqD2NvG-1" vertex="1">
          <mxGeometry x="520" y="-370" width="100" height="60" as="geometry" />
        </mxCell>
        <mxCell id="OvfQxydnYUlert43v9c2-16" value="Valid" style="edgeStyle=orthogonalEdgeStyle;rounded=0;orthogonalLoop=1;jettySize=auto;html=1;fontFamily=Open Sans;" parent="NbdiYjX3MhI7OpqD2NvG-1" source="OvfQxydnYUlert43v9c2-18" target="OvfQxydnYUlert43v9c2-15" edge="1">
          <mxGeometry relative="1" as="geometry">
            <mxPoint as="offset" />
          </mxGeometry>
        </mxCell>
        <mxCell id="OvfQxydnYUlert43v9c2-14" value="Validate length and MD5" style="rounded=1;whiteSpace=wrap;html=1;absoluteArcSize=1;arcSize=14;strokeWidth=2;fontFamily=Open Sans;fillColor=#E6E6E6;" parent="NbdiYjX3MhI7OpqD2NvG-1" vertex="1">
          <mxGeometry x="180" y="-370" width="100" height="60" as="geometry" />
        </mxCell>
        <mxCell id="OvfQxydnYUlert43v9c2-17" style="edgeStyle=orthogonalEdgeStyle;rounded=0;orthogonalLoop=1;jettySize=auto;html=1;fontFamily=Open Sans;" parent="NbdiYjX3MhI7OpqD2NvG-1" source="OvfQxydnYUlert43v9c2-15" target="OvfQxydnYUlert43v9c2-23" edge="1">
          <mxGeometry relative="1" as="geometry" />
        </mxCell>
        <mxCell id="OvfQxydnYUlert43v9c2-15" value="Update Config in SPIFFS" style="verticalLabelPosition=middle;verticalAlign=middle;html=1;shape=process;whiteSpace=wrap;rounded=1;size=0.14;arcSize=6;fillColor=#E6E6E6;fontFamily=Open Sans;labelPosition=center;align=center;" parent="NbdiYjX3MhI7OpqD2NvG-1" vertex="1">
          <mxGeometry x="180" y="-130" width="100" height="60" as="geometry" />
        </mxCell>
        <mxCell id="OvfQxydnYUlert43v9c2-19" value="" style="edgeStyle=orthogonalEdgeStyle;rounded=0;orthogonalLoop=1;jettySize=auto;html=1;fontFamily=Open Sans;" parent="NbdiYjX3MhI7OpqD2NvG-1" source="OvfQxydnYUlert43v9c2-14" target="OvfQxydnYUlert43v9c2-18" edge="1">
          <mxGeometry relative="1" as="geometry">
            <mxPoint x="230" y="-310" as="sourcePoint" />
            <mxPoint x="230" y="-160" as="targetPoint" />
          </mxGeometry>
        </mxCell>
        <mxCell id="OvfQxydnYUlert43v9c2-20" value="Invalid" style="edgeStyle=orthogonalEdgeStyle;rounded=0;orthogonalLoop=1;jettySize=auto;html=1;fontFamily=Open Sans;exitX=0;exitY=0.5;exitDx=0;exitDy=0;exitPerimeter=0;" parent="NbdiYjX3MhI7OpqD2NvG-1" source="OvfQxydnYUlert43v9c2-18" target="OvfQxydnYUlert43v9c2-35" edge="1">
          <mxGeometry x="-0.6923" relative="1" as="geometry">
            <mxPoint x="130" y="30" as="targetPoint" />
            <mxPoint as="offset" />
          </mxGeometry>
        </mxCell>
        <mxCell id="OvfQxydnYUlert43v9c2-18" value="Valid?" style="strokeWidth=2;html=1;shape=mxgraph.flowchart.decision;whiteSpace=wrap;fontFamily=Open Sans;fillColor=#E6E6E6;" parent="NbdiYjX3MhI7OpqD2NvG-1" vertex="1">
          <mxGeometry x="180" y="-280" width="100" height="100" as="geometry" />
        </mxCell>
        <mxCell id="OvfQxydnYUlert43v9c2-27" value="json(delete_config, filename)" style="edgeStyle=orthogonalEdgeStyle;rounded=0;orthogonalLoop=1;jettySize=auto;html=1;entryX=0;entryY=0.5;entryDx=0;entryDy=0;fontFamily=Open Sans;" parent="NbdiYjX3MhI7OpqD2NvG-1" source="OvfQxydnYUlert43v9c2-23" target="OvfQxydnYUlert43v9c2-25" edge="1">
          <mxGeometry x="-0.4737" relative="1" as="geometry">
            <Array as="points">
              <mxPoint x="470" y="-10" />
              <mxPoint x="470" y="-110" />
            </Array>
            <mxPoint as="offset" />
          </mxGeometry>
        </mxCell>
        <mxCell id="OvfQxydnYUlert43v9c2-23" value="Transmit delete request to Node-RED" style="rounded=1;whiteSpace=wrap;html=1;absoluteArcSize=1;arcSize=14;strokeWidth=2;fontFamily=Open Sans;fillColor=#E6E6E6;" parent="NbdiYjX3MhI7OpqD2NvG-1" vertex="1">
          <mxGeometry x="180" y="-40" width="100" height="60" as="geometry" />
        </mxCell>
        <mxCell id="OvfQxydnYUlert43v9c2-24" style="edgeStyle=orthogonalEdgeStyle;rounded=0;orthogonalLoop=1;jettySize=auto;html=1;fontFamily=Open Sans;" parent="NbdiYjX3MhI7OpqD2NvG-1" source="OvfQxydnYUlert43v9c2-25" target="OvfQxydnYUlert43v9c2-26" edge="1">
          <mxGeometry relative="1" as="geometry" />
        </mxCell>
        <mxCell id="OvfQxydnYUlert43v9c2-25" value="Find matching configuration file" style="rounded=1;whiteSpace=wrap;html=1;absoluteArcSize=1;arcSize=14;strokeWidth=2;fontFamily=Open Sans;fillColor=#E6E6E6;" parent="NbdiYjX3MhI7OpqD2NvG-1" vertex="1">
          <mxGeometry x="520" y="-140" width="100" height="60" as="geometry" />
        </mxCell>
        <mxCell id="OvfQxydnYUlert43v9c2-32" value="No" style="edgeStyle=orthogonalEdgeStyle;rounded=0;orthogonalLoop=1;jettySize=auto;html=1;entryX=1;entryY=0.5;entryDx=0;entryDy=0;exitX=0.5;exitY=1;exitDx=0;exitDy=0;exitPerimeter=0;fontFamily=Open Sans;" parent="NbdiYjX3MhI7OpqD2NvG-1" source="OvfQxydnYUlert43v9c2-26" target="OvfQxydnYUlert43v9c2-29" edge="1">
          <mxGeometry x="-0.3333" relative="1" as="geometry">
            <mxPoint as="offset" />
          </mxGeometry>
        </mxCell>
        <mxCell id="OvfQxydnYUlert43v9c2-33" value="Yes" style="edgeStyle=orthogonalEdgeStyle;rounded=0;orthogonalLoop=1;jettySize=auto;html=1;entryX=1;entryY=0.5;entryDx=0;entryDy=0;exitX=0.5;exitY=1;exitDx=0;exitDy=0;exitPerimeter=0;fontFamily=Open Sans;" parent="NbdiYjX3MhI7OpqD2NvG-1" source="OvfQxydnYUlert43v9c2-26" target="OvfQxydnYUlert43v9c2-28" edge="1">
          <mxGeometry x="0.1667" relative="1" as="geometry">
            <mxPoint as="offset" />
          </mxGeometry>
        </mxCell>
        <mxCell id="OvfQxydnYUlert43v9c2-26" value="Match?" style="strokeWidth=2;html=1;shape=mxgraph.flowchart.decision;whiteSpace=wrap;fontFamily=Open Sans;fillColor=#E6E6E6;" parent="NbdiYjX3MhI7OpqD2NvG-1" vertex="1">
          <mxGeometry x="650" y="-160" width="100" height="100" as="geometry" />
        </mxCell>
        <mxCell id="OvfQxydnYUlert43v9c2-31" style="edgeStyle=orthogonalEdgeStyle;rounded=0;orthogonalLoop=1;jettySize=auto;html=1;fontFamily=Open Sans;" parent="NbdiYjX3MhI7OpqD2NvG-1" source="OvfQxydnYUlert43v9c2-28" target="OvfQxydnYUlert43v9c2-29" edge="1">
          <mxGeometry relative="1" as="geometry" />
        </mxCell>
        <mxCell id="OvfQxydnYUlert43v9c2-28" value="Delete File" style="rounded=1;whiteSpace=wrap;html=1;absoluteArcSize=1;arcSize=14;strokeWidth=2;fontFamily=Open Sans;fillColor=#E6E6E6;" parent="NbdiYjX3MhI7OpqD2NvG-1" vertex="1">
          <mxGeometry x="520" y="-50" width="100" height="60" as="geometry" />
        </mxCell>
        <mxCell id="OvfQxydnYUlert43v9c2-29" value="Transmit Empty Response" style="rounded=1;whiteSpace=wrap;html=1;absoluteArcSize=1;arcSize=14;strokeWidth=2;fontFamily=Open Sans;fillColor=#E6E6E6;" parent="NbdiYjX3MhI7OpqD2NvG-1" vertex="1">
          <mxGeometry x="520" y="40" width="100" height="60" as="geometry" />
        </mxCell>
        <mxCell id="OvfQxydnYUlert43v9c2-34" style="edgeStyle=orthogonalEdgeStyle;rounded=0;orthogonalLoop=1;jettySize=auto;html=1;fontFamily=Open Sans;" parent="NbdiYjX3MhI7OpqD2NvG-1" source="OvfQxydnYUlert43v9c2-29" target="OvfQxydnYUlert43v9c2-35" edge="1">
          <mxGeometry relative="1" as="geometry">
            <mxPoint x="180" y="80" as="targetPoint" />
          </mxGeometry>
        </mxCell>
        <mxCell id="OvfQxydnYUlert43v9c2-36" style="edgeStyle=orthogonalEdgeStyle;rounded=0;orthogonalLoop=1;jettySize=auto;html=1;entryX=0.5;entryY=1;entryDx=0;entryDy=0;fontFamily=Open Sans;" parent="NbdiYjX3MhI7OpqD2NvG-1" source="OvfQxydnYUlert43v9c2-35" target="PINzFg8CK9Q2xGxRfYvV-18" edge="1">
          <mxGeometry relative="1" as="geometry">
            <Array as="points">
              <mxPoint x="70" y="70" />
              <mxPoint x="70" y="-460" />
              <mxPoint x="230" y="-460" />
            </Array>
          </mxGeometry>
        </mxCell>
        <mxCell id="OvfQxydnYUlert43v9c2-37" style="edgeStyle=orthogonalEdgeStyle;rounded=0;orthogonalLoop=1;jettySize=auto;html=1;fontFamily=Open Sans;" parent="NbdiYjX3MhI7OpqD2NvG-1" source="OvfQxydnYUlert43v9c2-35" target="PINzFg8CK9Q2xGxRfYvV-7" edge="1">
          <mxGeometry relative="1" as="geometry" />
        </mxCell>
        <mxCell id="OvfQxydnYUlert43v9c2-35" value="&lt;font&gt;Loop for each Config File&lt;/font&gt;" style="strokeWidth=2;html=1;shape=mxgraph.flowchart.loop_limit;whiteSpace=wrap;fillColor=#E6E6E6;fontFamily=Open Sans;" parent="NbdiYjX3MhI7OpqD2NvG-1" vertex="1">
          <mxGeometry x="80" y="40" width="100" height="60" as="geometry" />
        </mxCell>
      </root>
    </mxGraphModel>
  </diagram>
</mxfile>
